<?xml version="1.0" standalone="no"?>
<!DOCTYPE svg PUBLIC "-//W3C//DTD SVG 20010904//EN"
 "http://www.w3.org/TR/2001/REC-SVG-20010904/DTD/svg10.dtd">
<svg version="1.0" xmlns="http://www.w3.org/2000/svg"
 width="228.000000pt" height="228.000000pt" viewBox="0 0 228.000000 228.000000"
 preserveAspectRatio="xMidYMid meet">
<metadata>
Created by potrace 1.11, written by Peter Selinger 2001-2013
</metadata>
<g transform="translate(0.000000,228.000000) scale(0.100000,-0.100000)"
fill="#000000" stroke="none">
<path d="M490 1806 c0 -8 14 -18 31 -21 47 -10 133 -102 237 -250 l91 -129
-32 -27 c-39 -32 -160 -156 -213 -220 -46 -53 -131 -152 -157 -183 -11 -11
-39 -45 -64 -73 -34 -39 -60 -58 -102 -73 -30 -12 -59 -27 -63 -33 -15 -23 -8
-36 14 -31 13 3 69 8 125 11 l102 6 27 41 c108 164 448 536 470 514 5 -6 -63
-264 -101 -387 -29 -92 -64 -130 -138 -151 -35 -9 -47 -18 -47 -31 0 -16 5
-18 33 -13 32 5 69 10 142 19 40 4 40 4 10 -8 -16 -7 -31 -20 -33 -29 -3 -21
-7 -21 93 -3 81 14 155 14 278 0 64 -8 67 -7 67 14 0 16 -6 21 -30 22 -33 2
-33 2 -72 12 -20 5 -28 14 -27 30 1 41 76 322 82 307 3 -8 25 -71 47 -140 111
-336 222 -458 430 -472 25 -2 48 -7 52 -13 4 -5 40 -10 80 -12 89 -3 160 25
202 79 32 43 35 93 5 108 -38 21 -65 5 -89 -55 -24 -60 -56 -85 -107 -85 l-28
0 38 31 c63 52 80 116 35 140 -37 20 -64 3 -88 -55 -20 -50 -63 -96 -78 -82
-3 3 0 6 7 6 7 0 -3 16 -22 35 -67 67 -97 136 -177 410 -53 180 -76 243 -104
280 -12 17 -25 35 -29 41 -4 6 44 50 111 102 64 50 128 101 142 114 14 13 45
39 70 59 25 20 59 49 75 63 36 31 141 86 166 86 9 0 19 7 23 15 4 13 -7 15
-72 15 -42 0 -93 -4 -111 -10 -19 -5 -37 -8 -39 -5 -3 3 9 8 26 11 17 4 37 13
43 20 10 12 -17 14 -169 14 -155 0 -181 -2 -186 -16 -11 -28 -7 -31 46 -37 28
-4 55 -10 60 -15 11 -11 -64 -83 -179 -177 -49 -38 -83 -60 -83 -51 0 8 16 68
35 135 19 66 35 123 35 126 0 3 -12 3 -27 0 -16 -3 -46 -8 -68 -11 -22 -3 -44
-7 -50 -8 -5 0 -9 12 -7 27 2 24 0 28 -15 24 -21 -6 -76 -14 -147 -22 -45 -5
-65 -16 -66 -37 0 -5 8 -8 19 -8 43 0 44 -22 7 -167 -50 -192 -52 -198 -59
-195 -4 1 -11 2 -16 2 -21 0 -224 276 -244 331 -11 33 15 47 94 48 31 1 37 5
41 26 l5 25 -178 0 c-148 0 -179 -2 -179 -14z m1225 -56 c-20 -14 -25 -20 -13
-20 43 0 20 -34 -82 -120 -29 -25 -58 -50 -64 -55 -24 -23 -243 -183 -265
-195 -23 -12 -24 -12 -17 21 3 18 7 33 9 34 10 6 180 144 252 205 103 88 186
149 200 150 6 0 -3 -9 -20 -20z m-535 -181 c-38 -152 -49 -189 -59 -189 -4 0
10 66 30 146 42 163 47 179 55 172 3 -3 -9 -61 -26 -129z m-106 -399 c-20 -74
-43 -161 -51 -193 -9 -32 -18 -55 -21 -52 -3 2 19 98 49 212 30 115 55 199 57
188 1 -11 -14 -81 -34 -155z m280 -36 c3 -8 2 -12 -4 -9 -6 3 -10 10 -10 16 0
14 7 11 14 -7z m52 -171 c27 -81 69 -189 94 -240 50 -102 49 -112 -3 -25 -34
56 -74 161 -117 311 -12 40 -24 80 -27 87 -3 8 -3 14 0 14 3 0 27 -66 53 -147z
m-409 -75 c-3 -8 -6 -5 -6 6 -1 11 2 17 5 13 3 -3 4 -12 1 -19z m700 -324 c-3
-3 -12 -4 -19 -1 -8 3 -5 6 6 6 11 1 17 -2 13 -5z"/>
</g>
</svg>
